<mxfile host="app.diagrams.net" modified="2020-04-30T05:16:30.353Z" agent="5.0 (Windows)" etag="bF1216BNlcPBDQ5e6RNH" version="13.0.3" type="github" pages="8">
  <diagram id="34HF-LrbdGzCfv9tlAId" name="insert0">
    <mxGraphModel dx="782" dy="431" grid="1" gridSize="10" guides="1" tooltips="1" connect="1" arrows="1" fold="1" page="1" pageScale="1" pageWidth="850" pageHeight="1100" math="0" shadow="0">
      <root>
        <mxCell id="0" />
        <mxCell id="1" parent="0" />
        <mxCell id="reQ3uYfIpDaLNRY7j3E8-1" value="A" style="ellipse;whiteSpace=wrap;html=1;aspect=fixed;" parent="1" vertex="1">
          <mxGeometry x="360" y="80" width="40" height="40" as="geometry" />
        </mxCell>
        <mxCell id="reQ3uYfIpDaLNRY7j3E8-2" value="D" style="ellipse;whiteSpace=wrap;html=1;aspect=fixed;" parent="1" vertex="1">
          <mxGeometry x="280" y="160" width="40" height="40" as="geometry" />
        </mxCell>
        <mxCell id="reQ3uYfIpDaLNRY7j3E8-3" value="G" style="ellipse;whiteSpace=wrap;html=1;aspect=fixed;" parent="1" vertex="1">
          <mxGeometry x="440" y="160" width="40" height="40" as="geometry" />
        </mxCell>
        <mxCell id="reQ3uYfIpDaLNRY7j3E8-4" value="E" style="ellipse;whiteSpace=wrap;html=1;aspect=fixed;" parent="1" vertex="1">
          <mxGeometry x="240" y="240" width="40" height="40" as="geometry" />
        </mxCell>
        <mxCell id="reQ3uYfIpDaLNRY7j3E8-5" value="Z" style="ellipse;whiteSpace=wrap;html=1;aspect=fixed;" parent="1" vertex="1">
          <mxGeometry x="320" y="240" width="40" height="40" as="geometry" />
        </mxCell>
        <mxCell id="reQ3uYfIpDaLNRY7j3E8-6" value="X" style="ellipse;whiteSpace=wrap;html=1;aspect=fixed;" parent="1" vertex="1">
          <mxGeometry x="400" y="240" width="40" height="40" as="geometry" />
        </mxCell>
        <mxCell id="reQ3uYfIpDaLNRY7j3E8-7" value="D" style="ellipse;whiteSpace=wrap;html=1;aspect=fixed;fillColor=#d5e8d4;strokeColor=#82b366;" parent="1" vertex="1">
          <mxGeometry x="560" y="80" width="40" height="40" as="geometry" />
        </mxCell>
        <mxCell id="reQ3uYfIpDaLNRY7j3E8-8" value="" style="endArrow=classic;html=1;exitX=0;exitY=1;exitDx=0;exitDy=0;entryX=1;entryY=0;entryDx=0;entryDy=0;" parent="1" source="reQ3uYfIpDaLNRY7j3E8-1" target="reQ3uYfIpDaLNRY7j3E8-2" edge="1">
          <mxGeometry width="50" height="50" relative="1" as="geometry">
            <mxPoint x="370" y="250" as="sourcePoint" />
            <mxPoint x="420" y="200" as="targetPoint" />
          </mxGeometry>
        </mxCell>
        <mxCell id="reQ3uYfIpDaLNRY7j3E8-10" value="" style="endArrow=classic;html=1;exitX=1;exitY=1;exitDx=0;exitDy=0;" parent="1" source="reQ3uYfIpDaLNRY7j3E8-1" target="reQ3uYfIpDaLNRY7j3E8-3" edge="1">
          <mxGeometry width="50" height="50" relative="1" as="geometry">
            <mxPoint x="370" y="250" as="sourcePoint" />
            <mxPoint x="420" y="200" as="targetPoint" />
          </mxGeometry>
        </mxCell>
        <mxCell id="reQ3uYfIpDaLNRY7j3E8-12" value="" style="endArrow=classic;html=1;exitX=0;exitY=1;exitDx=0;exitDy=0;entryX=1;entryY=0;entryDx=0;entryDy=0;" parent="1" edge="1">
          <mxGeometry width="50" height="50" relative="1" as="geometry">
            <mxPoint x="365.85786437626894" y="114.14213562373106" as="sourcePoint" />
            <mxPoint x="314.14213562373106" y="165.85786437626894" as="targetPoint" />
          </mxGeometry>
        </mxCell>
        <mxCell id="reQ3uYfIpDaLNRY7j3E8-13" value="" style="endArrow=classic;html=1;exitX=0;exitY=1;exitDx=0;exitDy=0;entryX=0.5;entryY=0;entryDx=0;entryDy=0;" parent="1" source="reQ3uYfIpDaLNRY7j3E8-2" target="reQ3uYfIpDaLNRY7j3E8-4" edge="1">
          <mxGeometry width="50" height="50" relative="1" as="geometry">
            <mxPoint x="375.85786437626894" y="124.14213562373106" as="sourcePoint" />
            <mxPoint x="324.14213562373106" y="175.85786437626894" as="targetPoint" />
          </mxGeometry>
        </mxCell>
        <mxCell id="reQ3uYfIpDaLNRY7j3E8-14" value="" style="endArrow=classic;html=1;exitX=1;exitY=1;exitDx=0;exitDy=0;entryX=0.5;entryY=0;entryDx=0;entryDy=0;" parent="1" source="reQ3uYfIpDaLNRY7j3E8-2" target="reQ3uYfIpDaLNRY7j3E8-5" edge="1">
          <mxGeometry width="50" height="50" relative="1" as="geometry">
            <mxPoint x="385.85786437626894" y="134.14213562373106" as="sourcePoint" />
            <mxPoint x="334.14213562373106" y="185.85786437626894" as="targetPoint" />
          </mxGeometry>
        </mxCell>
        <mxCell id="reQ3uYfIpDaLNRY7j3E8-15" value="" style="endArrow=classic;html=1;exitX=0;exitY=1;exitDx=0;exitDy=0;entryX=0.5;entryY=0;entryDx=0;entryDy=0;" parent="1" source="reQ3uYfIpDaLNRY7j3E8-3" target="reQ3uYfIpDaLNRY7j3E8-6" edge="1">
          <mxGeometry width="50" height="50" relative="1" as="geometry">
            <mxPoint x="395.85786437626894" y="144.14213562373106" as="sourcePoint" />
            <mxPoint x="420" y="194" as="targetPoint" />
          </mxGeometry>
        </mxCell>
        <mxCell id="oYwyrfmbq8HLH4aLTmTc-1" value="node to be inserted" style="text;html=1;strokeColor=none;fillColor=none;align=center;verticalAlign=middle;whiteSpace=wrap;rounded=0;" parent="1" vertex="1">
          <mxGeometry x="590" y="90" width="140" height="20" as="geometry" />
        </mxCell>
      </root>
    </mxGraphModel>
  </diagram>
  <diagram name="insert1" id="ffyoAO7ods3HbjO2z12h">
    <mxGraphModel dx="782" dy="431" grid="1" gridSize="10" guides="1" tooltips="1" connect="1" arrows="1" fold="1" page="1" pageScale="1" pageWidth="850" pageHeight="1100" math="0" shadow="0">
      <root>
        <mxCell id="C-Qoiq7Bib27GwgHGDlU-0" />
        <mxCell id="C-Qoiq7Bib27GwgHGDlU-1" parent="C-Qoiq7Bib27GwgHGDlU-0" />
        <mxCell id="C-Qoiq7Bib27GwgHGDlU-2" value="A" style="ellipse;whiteSpace=wrap;html=1;aspect=fixed;" parent="C-Qoiq7Bib27GwgHGDlU-1" vertex="1">
          <mxGeometry x="360" y="80" width="40" height="40" as="geometry" />
        </mxCell>
        <mxCell id="C-Qoiq7Bib27GwgHGDlU-3" value="D" style="ellipse;whiteSpace=wrap;html=1;aspect=fixed;" parent="C-Qoiq7Bib27GwgHGDlU-1" vertex="1">
          <mxGeometry x="280" y="160" width="40" height="40" as="geometry" />
        </mxCell>
        <mxCell id="C-Qoiq7Bib27GwgHGDlU-4" value="G" style="ellipse;whiteSpace=wrap;html=1;aspect=fixed;" parent="C-Qoiq7Bib27GwgHGDlU-1" vertex="1">
          <mxGeometry x="440" y="160" width="40" height="40" as="geometry" />
        </mxCell>
        <mxCell id="C-Qoiq7Bib27GwgHGDlU-5" value="E" style="ellipse;whiteSpace=wrap;html=1;aspect=fixed;" parent="C-Qoiq7Bib27GwgHGDlU-1" vertex="1">
          <mxGeometry x="240" y="240" width="40" height="40" as="geometry" />
        </mxCell>
        <mxCell id="C-Qoiq7Bib27GwgHGDlU-6" value="Z" style="ellipse;whiteSpace=wrap;html=1;aspect=fixed;" parent="C-Qoiq7Bib27GwgHGDlU-1" vertex="1">
          <mxGeometry x="320" y="240" width="40" height="40" as="geometry" />
        </mxCell>
        <mxCell id="C-Qoiq7Bib27GwgHGDlU-7" value="X" style="ellipse;whiteSpace=wrap;html=1;aspect=fixed;" parent="C-Qoiq7Bib27GwgHGDlU-1" vertex="1">
          <mxGeometry x="400" y="240" width="40" height="40" as="geometry" />
        </mxCell>
        <mxCell id="C-Qoiq7Bib27GwgHGDlU-8" value="D" style="ellipse;whiteSpace=wrap;html=1;aspect=fixed;fillColor=#d5e8d4;strokeColor=#82b366;" parent="C-Qoiq7Bib27GwgHGDlU-1" vertex="1">
          <mxGeometry x="480" y="240" width="40" height="40" as="geometry" />
        </mxCell>
        <mxCell id="C-Qoiq7Bib27GwgHGDlU-9" value="" style="endArrow=classic;html=1;exitX=0;exitY=1;exitDx=0;exitDy=0;entryX=1;entryY=0;entryDx=0;entryDy=0;" parent="C-Qoiq7Bib27GwgHGDlU-1" source="C-Qoiq7Bib27GwgHGDlU-2" target="C-Qoiq7Bib27GwgHGDlU-3" edge="1">
          <mxGeometry width="50" height="50" relative="1" as="geometry">
            <mxPoint x="370" y="250" as="sourcePoint" />
            <mxPoint x="420" y="200" as="targetPoint" />
          </mxGeometry>
        </mxCell>
        <mxCell id="C-Qoiq7Bib27GwgHGDlU-10" value="" style="endArrow=classic;html=1;exitX=1;exitY=1;exitDx=0;exitDy=0;" parent="C-Qoiq7Bib27GwgHGDlU-1" source="C-Qoiq7Bib27GwgHGDlU-2" target="C-Qoiq7Bib27GwgHGDlU-4" edge="1">
          <mxGeometry width="50" height="50" relative="1" as="geometry">
            <mxPoint x="370" y="250" as="sourcePoint" />
            <mxPoint x="420" y="200" as="targetPoint" />
          </mxGeometry>
        </mxCell>
        <mxCell id="C-Qoiq7Bib27GwgHGDlU-11" value="" style="endArrow=classic;html=1;exitX=0;exitY=1;exitDx=0;exitDy=0;entryX=1;entryY=0;entryDx=0;entryDy=0;" parent="C-Qoiq7Bib27GwgHGDlU-1" edge="1">
          <mxGeometry width="50" height="50" relative="1" as="geometry">
            <mxPoint x="365.85786437626894" y="114.14213562373106" as="sourcePoint" />
            <mxPoint x="314.14213562373106" y="165.85786437626894" as="targetPoint" />
          </mxGeometry>
        </mxCell>
        <mxCell id="C-Qoiq7Bib27GwgHGDlU-12" value="" style="endArrow=classic;html=1;exitX=0;exitY=1;exitDx=0;exitDy=0;entryX=0.5;entryY=0;entryDx=0;entryDy=0;" parent="C-Qoiq7Bib27GwgHGDlU-1" source="C-Qoiq7Bib27GwgHGDlU-3" target="C-Qoiq7Bib27GwgHGDlU-5" edge="1">
          <mxGeometry width="50" height="50" relative="1" as="geometry">
            <mxPoint x="375.85786437626894" y="124.14213562373106" as="sourcePoint" />
            <mxPoint x="324.14213562373106" y="175.85786437626894" as="targetPoint" />
          </mxGeometry>
        </mxCell>
        <mxCell id="C-Qoiq7Bib27GwgHGDlU-13" value="" style="endArrow=classic;html=1;exitX=1;exitY=1;exitDx=0;exitDy=0;entryX=0.5;entryY=0;entryDx=0;entryDy=0;" parent="C-Qoiq7Bib27GwgHGDlU-1" source="C-Qoiq7Bib27GwgHGDlU-3" target="C-Qoiq7Bib27GwgHGDlU-6" edge="1">
          <mxGeometry width="50" height="50" relative="1" as="geometry">
            <mxPoint x="385.85786437626894" y="134.14213562373106" as="sourcePoint" />
            <mxPoint x="334.14213562373106" y="185.85786437626894" as="targetPoint" />
          </mxGeometry>
        </mxCell>
        <mxCell id="C-Qoiq7Bib27GwgHGDlU-14" value="" style="endArrow=classic;html=1;exitX=0;exitY=1;exitDx=0;exitDy=0;entryX=0.5;entryY=0;entryDx=0;entryDy=0;" parent="C-Qoiq7Bib27GwgHGDlU-1" source="C-Qoiq7Bib27GwgHGDlU-4" target="C-Qoiq7Bib27GwgHGDlU-7" edge="1">
          <mxGeometry width="50" height="50" relative="1" as="geometry">
            <mxPoint x="395.85786437626894" y="144.14213562373106" as="sourcePoint" />
            <mxPoint x="420" y="194" as="targetPoint" />
          </mxGeometry>
        </mxCell>
        <mxCell id="C-Qoiq7Bib27GwgHGDlU-15" value="" style="endArrow=classic;html=1;exitX=1;exitY=1;exitDx=0;exitDy=0;entryX=0.5;entryY=0;entryDx=0;entryDy=0;" parent="C-Qoiq7Bib27GwgHGDlU-1" source="C-Qoiq7Bib27GwgHGDlU-4" target="C-Qoiq7Bib27GwgHGDlU-8" edge="1">
          <mxGeometry width="50" height="50" relative="1" as="geometry">
            <mxPoint x="405.85786437626894" y="154.14213562373106" as="sourcePoint" />
            <mxPoint x="354.14213562373106" y="205.85786437626894" as="targetPoint" />
          </mxGeometry>
        </mxCell>
      </root>
    </mxGraphModel>
  </diagram>
  <diagram name="insert2" id="aYpOPsD94-olebaY59pq">
    <mxGraphModel dx="782" dy="431" grid="1" gridSize="10" guides="1" tooltips="1" connect="1" arrows="1" fold="1" page="1" pageScale="1" pageWidth="850" pageHeight="1100" math="0" shadow="0">
      <root>
        <mxCell id="vXkFa2twv61q6ra7nLN5-0" />
        <mxCell id="vXkFa2twv61q6ra7nLN5-1" parent="vXkFa2twv61q6ra7nLN5-0" />
        <mxCell id="vXkFa2twv61q6ra7nLN5-2" value="A" style="ellipse;whiteSpace=wrap;html=1;aspect=fixed;" parent="vXkFa2twv61q6ra7nLN5-1" vertex="1">
          <mxGeometry x="360" y="80" width="40" height="40" as="geometry" />
        </mxCell>
        <mxCell id="vXkFa2twv61q6ra7nLN5-3" value="D" style="ellipse;whiteSpace=wrap;html=1;aspect=fixed;" parent="vXkFa2twv61q6ra7nLN5-1" vertex="1">
          <mxGeometry x="280" y="160" width="40" height="40" as="geometry" />
        </mxCell>
        <mxCell id="vXkFa2twv61q6ra7nLN5-4" value="G" style="ellipse;whiteSpace=wrap;html=1;aspect=fixed;" parent="vXkFa2twv61q6ra7nLN5-1" vertex="1">
          <mxGeometry x="440" y="160" width="40" height="40" as="geometry" />
        </mxCell>
        <mxCell id="vXkFa2twv61q6ra7nLN5-5" value="E" style="ellipse;whiteSpace=wrap;html=1;aspect=fixed;" parent="vXkFa2twv61q6ra7nLN5-1" vertex="1">
          <mxGeometry x="240" y="240" width="40" height="40" as="geometry" />
        </mxCell>
        <mxCell id="vXkFa2twv61q6ra7nLN5-6" value="Z" style="ellipse;whiteSpace=wrap;html=1;aspect=fixed;" parent="vXkFa2twv61q6ra7nLN5-1" vertex="1">
          <mxGeometry x="320" y="240" width="40" height="40" as="geometry" />
        </mxCell>
        <mxCell id="vXkFa2twv61q6ra7nLN5-7" value="X" style="ellipse;whiteSpace=wrap;html=1;aspect=fixed;" parent="vXkFa2twv61q6ra7nLN5-1" vertex="1">
          <mxGeometry x="400" y="240" width="40" height="40" as="geometry" />
        </mxCell>
        <mxCell id="vXkFa2twv61q6ra7nLN5-8" value="D" style="ellipse;whiteSpace=wrap;html=1;aspect=fixed;fillColor=#d5e8d4;strokeColor=#82b366;" parent="vXkFa2twv61q6ra7nLN5-1" vertex="1">
          <mxGeometry x="480" y="240" width="40" height="40" as="geometry" />
        </mxCell>
        <mxCell id="vXkFa2twv61q6ra7nLN5-9" value="" style="endArrow=classic;html=1;exitX=0;exitY=1;exitDx=0;exitDy=0;entryX=1;entryY=0;entryDx=0;entryDy=0;" parent="vXkFa2twv61q6ra7nLN5-1" source="vXkFa2twv61q6ra7nLN5-2" target="vXkFa2twv61q6ra7nLN5-3" edge="1">
          <mxGeometry width="50" height="50" relative="1" as="geometry">
            <mxPoint x="370" y="250" as="sourcePoint" />
            <mxPoint x="420" y="200" as="targetPoint" />
          </mxGeometry>
        </mxCell>
        <mxCell id="vXkFa2twv61q6ra7nLN5-10" value="" style="endArrow=classic;html=1;exitX=1;exitY=1;exitDx=0;exitDy=0;" parent="vXkFa2twv61q6ra7nLN5-1" source="vXkFa2twv61q6ra7nLN5-2" target="vXkFa2twv61q6ra7nLN5-4" edge="1">
          <mxGeometry width="50" height="50" relative="1" as="geometry">
            <mxPoint x="370" y="250" as="sourcePoint" />
            <mxPoint x="420" y="200" as="targetPoint" />
          </mxGeometry>
        </mxCell>
        <mxCell id="vXkFa2twv61q6ra7nLN5-11" value="" style="endArrow=classic;html=1;exitX=0;exitY=1;exitDx=0;exitDy=0;entryX=1;entryY=0;entryDx=0;entryDy=0;" parent="vXkFa2twv61q6ra7nLN5-1" edge="1">
          <mxGeometry width="50" height="50" relative="1" as="geometry">
            <mxPoint x="365.85786437626894" y="114.14213562373106" as="sourcePoint" />
            <mxPoint x="314.14213562373106" y="165.85786437626894" as="targetPoint" />
          </mxGeometry>
        </mxCell>
        <mxCell id="vXkFa2twv61q6ra7nLN5-12" value="" style="endArrow=classic;html=1;exitX=0;exitY=1;exitDx=0;exitDy=0;entryX=0.5;entryY=0;entryDx=0;entryDy=0;" parent="vXkFa2twv61q6ra7nLN5-1" source="vXkFa2twv61q6ra7nLN5-3" target="vXkFa2twv61q6ra7nLN5-5" edge="1">
          <mxGeometry width="50" height="50" relative="1" as="geometry">
            <mxPoint x="375.85786437626894" y="124.14213562373106" as="sourcePoint" />
            <mxPoint x="324.14213562373106" y="175.85786437626894" as="targetPoint" />
          </mxGeometry>
        </mxCell>
        <mxCell id="vXkFa2twv61q6ra7nLN5-13" value="" style="endArrow=classic;html=1;exitX=1;exitY=1;exitDx=0;exitDy=0;entryX=0.5;entryY=0;entryDx=0;entryDy=0;" parent="vXkFa2twv61q6ra7nLN5-1" source="vXkFa2twv61q6ra7nLN5-3" target="vXkFa2twv61q6ra7nLN5-6" edge="1">
          <mxGeometry width="50" height="50" relative="1" as="geometry">
            <mxPoint x="385.85786437626894" y="134.14213562373106" as="sourcePoint" />
            <mxPoint x="334.14213562373106" y="185.85786437626894" as="targetPoint" />
          </mxGeometry>
        </mxCell>
        <mxCell id="vXkFa2twv61q6ra7nLN5-14" value="" style="endArrow=classic;html=1;exitX=0;exitY=1;exitDx=0;exitDy=0;entryX=0.5;entryY=0;entryDx=0;entryDy=0;" parent="vXkFa2twv61q6ra7nLN5-1" source="vXkFa2twv61q6ra7nLN5-4" target="vXkFa2twv61q6ra7nLN5-7" edge="1">
          <mxGeometry width="50" height="50" relative="1" as="geometry">
            <mxPoint x="395.85786437626894" y="144.14213562373106" as="sourcePoint" />
            <mxPoint x="420" y="194" as="targetPoint" />
          </mxGeometry>
        </mxCell>
        <mxCell id="vXkFa2twv61q6ra7nLN5-15" value="" style="endArrow=classic;html=1;exitX=1;exitY=1;exitDx=0;exitDy=0;entryX=0.5;entryY=0;entryDx=0;entryDy=0;" parent="vXkFa2twv61q6ra7nLN5-1" source="vXkFa2twv61q6ra7nLN5-4" target="vXkFa2twv61q6ra7nLN5-8" edge="1">
          <mxGeometry width="50" height="50" relative="1" as="geometry">
            <mxPoint x="405.85786437626894" y="154.14213562373106" as="sourcePoint" />
            <mxPoint x="354.14213562373106" y="205.85786437626894" as="targetPoint" />
          </mxGeometry>
        </mxCell>
        <mxCell id="SrZjZe7KAqvHJ1TmL_Qe-0" value="" style="dashed=1;curved=1;endArrow=classic;startArrow=classic;html=1;exitX=1;exitY=0.5;exitDx=0;exitDy=0;entryX=1;entryY=0.5;entryDx=0;entryDy=0;fillColor=#f8cecc;strokeColor=#b85450;" parent="vXkFa2twv61q6ra7nLN5-1" source="vXkFa2twv61q6ra7nLN5-8" target="vXkFa2twv61q6ra7nLN5-4" edge="1">
          <mxGeometry width="50" height="50" relative="1" as="geometry">
            <mxPoint x="550" y="220" as="sourcePoint" />
            <mxPoint x="520" y="140" as="targetPoint" />
            <Array as="points">
              <mxPoint x="540" y="220" />
              <mxPoint x="530" y="180" />
            </Array>
          </mxGeometry>
        </mxCell>
      </root>
    </mxGraphModel>
  </diagram>
  <diagram name="insert3" id="HSOnxWKe0ZoZqy4TBKXz">
    <mxGraphModel dx="782" dy="431" grid="1" gridSize="10" guides="1" tooltips="1" connect="1" arrows="1" fold="1" page="1" pageScale="1" pageWidth="850" pageHeight="1100" math="0" shadow="0">
      <root>
        <mxCell id="C8JuV8JJ2mS9ize30Ght-0" />
        <mxCell id="C8JuV8JJ2mS9ize30Ght-1" parent="C8JuV8JJ2mS9ize30Ght-0" />
        <mxCell id="C8JuV8JJ2mS9ize30Ght-2" value="A" style="ellipse;whiteSpace=wrap;html=1;aspect=fixed;" parent="C8JuV8JJ2mS9ize30Ght-1" vertex="1">
          <mxGeometry x="360" y="80" width="40" height="40" as="geometry" />
        </mxCell>
        <mxCell id="C8JuV8JJ2mS9ize30Ght-3" value="D" style="ellipse;whiteSpace=wrap;html=1;aspect=fixed;" parent="C8JuV8JJ2mS9ize30Ght-1" vertex="1">
          <mxGeometry x="280" y="160" width="40" height="40" as="geometry" />
        </mxCell>
        <mxCell id="C8JuV8JJ2mS9ize30Ght-4" value="D" style="ellipse;whiteSpace=wrap;html=1;aspect=fixed;fillColor=#d5e8d4;strokeColor=#82b366;" parent="C8JuV8JJ2mS9ize30Ght-1" vertex="1">
          <mxGeometry x="440" y="160" width="40" height="40" as="geometry" />
        </mxCell>
        <mxCell id="C8JuV8JJ2mS9ize30Ght-5" value="E" style="ellipse;whiteSpace=wrap;html=1;aspect=fixed;" parent="C8JuV8JJ2mS9ize30Ght-1" vertex="1">
          <mxGeometry x="240" y="240" width="40" height="40" as="geometry" />
        </mxCell>
        <mxCell id="C8JuV8JJ2mS9ize30Ght-6" value="Z" style="ellipse;whiteSpace=wrap;html=1;aspect=fixed;" parent="C8JuV8JJ2mS9ize30Ght-1" vertex="1">
          <mxGeometry x="320" y="240" width="40" height="40" as="geometry" />
        </mxCell>
        <mxCell id="C8JuV8JJ2mS9ize30Ght-7" value="X" style="ellipse;whiteSpace=wrap;html=1;aspect=fixed;" parent="C8JuV8JJ2mS9ize30Ght-1" vertex="1">
          <mxGeometry x="400" y="240" width="40" height="40" as="geometry" />
        </mxCell>
        <mxCell id="C8JuV8JJ2mS9ize30Ght-8" value="G" style="ellipse;whiteSpace=wrap;html=1;aspect=fixed;" parent="C8JuV8JJ2mS9ize30Ght-1" vertex="1">
          <mxGeometry x="480" y="240" width="40" height="40" as="geometry" />
        </mxCell>
        <mxCell id="C8JuV8JJ2mS9ize30Ght-9" value="" style="endArrow=classic;html=1;exitX=0;exitY=1;exitDx=0;exitDy=0;entryX=1;entryY=0;entryDx=0;entryDy=0;" parent="C8JuV8JJ2mS9ize30Ght-1" source="C8JuV8JJ2mS9ize30Ght-2" target="C8JuV8JJ2mS9ize30Ght-3" edge="1">
          <mxGeometry width="50" height="50" relative="1" as="geometry">
            <mxPoint x="370" y="250" as="sourcePoint" />
            <mxPoint x="420" y="200" as="targetPoint" />
          </mxGeometry>
        </mxCell>
        <mxCell id="C8JuV8JJ2mS9ize30Ght-10" value="" style="endArrow=classic;html=1;exitX=1;exitY=1;exitDx=0;exitDy=0;" parent="C8JuV8JJ2mS9ize30Ght-1" source="C8JuV8JJ2mS9ize30Ght-2" target="C8JuV8JJ2mS9ize30Ght-4" edge="1">
          <mxGeometry width="50" height="50" relative="1" as="geometry">
            <mxPoint x="370" y="250" as="sourcePoint" />
            <mxPoint x="420" y="200" as="targetPoint" />
          </mxGeometry>
        </mxCell>
        <mxCell id="C8JuV8JJ2mS9ize30Ght-11" value="" style="endArrow=classic;html=1;exitX=0;exitY=1;exitDx=0;exitDy=0;entryX=1;entryY=0;entryDx=0;entryDy=0;" parent="C8JuV8JJ2mS9ize30Ght-1" edge="1">
          <mxGeometry width="50" height="50" relative="1" as="geometry">
            <mxPoint x="365.85786437626894" y="114.14213562373106" as="sourcePoint" />
            <mxPoint x="314.14213562373106" y="165.85786437626894" as="targetPoint" />
          </mxGeometry>
        </mxCell>
        <mxCell id="C8JuV8JJ2mS9ize30Ght-12" value="" style="endArrow=classic;html=1;exitX=0;exitY=1;exitDx=0;exitDy=0;entryX=0.5;entryY=0;entryDx=0;entryDy=0;" parent="C8JuV8JJ2mS9ize30Ght-1" source="C8JuV8JJ2mS9ize30Ght-3" target="C8JuV8JJ2mS9ize30Ght-5" edge="1">
          <mxGeometry width="50" height="50" relative="1" as="geometry">
            <mxPoint x="375.85786437626894" y="124.14213562373106" as="sourcePoint" />
            <mxPoint x="324.14213562373106" y="175.85786437626894" as="targetPoint" />
          </mxGeometry>
        </mxCell>
        <mxCell id="C8JuV8JJ2mS9ize30Ght-13" value="" style="endArrow=classic;html=1;exitX=1;exitY=1;exitDx=0;exitDy=0;entryX=0.5;entryY=0;entryDx=0;entryDy=0;" parent="C8JuV8JJ2mS9ize30Ght-1" source="C8JuV8JJ2mS9ize30Ght-3" target="C8JuV8JJ2mS9ize30Ght-6" edge="1">
          <mxGeometry width="50" height="50" relative="1" as="geometry">
            <mxPoint x="385.85786437626894" y="134.14213562373106" as="sourcePoint" />
            <mxPoint x="334.14213562373106" y="185.85786437626894" as="targetPoint" />
          </mxGeometry>
        </mxCell>
        <mxCell id="C8JuV8JJ2mS9ize30Ght-14" value="" style="endArrow=classic;html=1;exitX=0;exitY=1;exitDx=0;exitDy=0;entryX=0.5;entryY=0;entryDx=0;entryDy=0;" parent="C8JuV8JJ2mS9ize30Ght-1" source="C8JuV8JJ2mS9ize30Ght-4" target="C8JuV8JJ2mS9ize30Ght-7" edge="1">
          <mxGeometry width="50" height="50" relative="1" as="geometry">
            <mxPoint x="395.85786437626894" y="144.14213562373106" as="sourcePoint" />
            <mxPoint x="420" y="194" as="targetPoint" />
          </mxGeometry>
        </mxCell>
        <mxCell id="C8JuV8JJ2mS9ize30Ght-15" value="" style="endArrow=classic;html=1;exitX=1;exitY=1;exitDx=0;exitDy=0;entryX=0.5;entryY=0;entryDx=0;entryDy=0;" parent="C8JuV8JJ2mS9ize30Ght-1" source="C8JuV8JJ2mS9ize30Ght-4" target="C8JuV8JJ2mS9ize30Ght-8" edge="1">
          <mxGeometry width="50" height="50" relative="1" as="geometry">
            <mxPoint x="405.85786437626894" y="154.14213562373106" as="sourcePoint" />
            <mxPoint x="354.14213562373106" y="205.85786437626894" as="targetPoint" />
          </mxGeometry>
        </mxCell>
      </root>
    </mxGraphModel>
  </diagram>
  <diagram name="delete0" id="ypvBi2WK5JvZ_LS88VUW">
    <mxGraphModel dx="782" dy="431" grid="1" gridSize="10" guides="1" tooltips="1" connect="1" arrows="1" fold="1" page="1" pageScale="1" pageWidth="850" pageHeight="1100" math="0" shadow="0">
      <root>
        <mxCell id="GKkTEuXcgtPDKcIp3vs8-0" />
        <mxCell id="GKkTEuXcgtPDKcIp3vs8-1" parent="GKkTEuXcgtPDKcIp3vs8-0" />
        <mxCell id="GKkTEuXcgtPDKcIp3vs8-2" value="A" style="ellipse;whiteSpace=wrap;html=1;aspect=fixed;fillColor=#f8cecc;strokeColor=#b85450;" parent="GKkTEuXcgtPDKcIp3vs8-1" vertex="1">
          <mxGeometry x="360" y="80" width="40" height="40" as="geometry" />
        </mxCell>
        <mxCell id="GKkTEuXcgtPDKcIp3vs8-3" value="D" style="ellipse;whiteSpace=wrap;html=1;aspect=fixed;" parent="GKkTEuXcgtPDKcIp3vs8-1" vertex="1">
          <mxGeometry x="280" y="160" width="40" height="40" as="geometry" />
        </mxCell>
        <mxCell id="GKkTEuXcgtPDKcIp3vs8-4" value="D" style="ellipse;whiteSpace=wrap;html=1;aspect=fixed;" parent="GKkTEuXcgtPDKcIp3vs8-1" vertex="1">
          <mxGeometry x="440" y="160" width="40" height="40" as="geometry" />
        </mxCell>
        <mxCell id="GKkTEuXcgtPDKcIp3vs8-5" value="E" style="ellipse;whiteSpace=wrap;html=1;aspect=fixed;" parent="GKkTEuXcgtPDKcIp3vs8-1" vertex="1">
          <mxGeometry x="240" y="240" width="40" height="40" as="geometry" />
        </mxCell>
        <mxCell id="GKkTEuXcgtPDKcIp3vs8-6" value="Z" style="ellipse;whiteSpace=wrap;html=1;aspect=fixed;" parent="GKkTEuXcgtPDKcIp3vs8-1" vertex="1">
          <mxGeometry x="320" y="240" width="40" height="40" as="geometry" />
        </mxCell>
        <mxCell id="GKkTEuXcgtPDKcIp3vs8-7" value="X" style="ellipse;whiteSpace=wrap;html=1;aspect=fixed;" parent="GKkTEuXcgtPDKcIp3vs8-1" vertex="1">
          <mxGeometry x="400" y="240" width="40" height="40" as="geometry" />
        </mxCell>
        <mxCell id="GKkTEuXcgtPDKcIp3vs8-8" value="" style="endArrow=classic;html=1;exitX=0;exitY=1;exitDx=0;exitDy=0;entryX=1;entryY=0;entryDx=0;entryDy=0;" parent="GKkTEuXcgtPDKcIp3vs8-1" source="GKkTEuXcgtPDKcIp3vs8-2" target="GKkTEuXcgtPDKcIp3vs8-3" edge="1">
          <mxGeometry width="50" height="50" relative="1" as="geometry">
            <mxPoint x="370" y="250" as="sourcePoint" />
            <mxPoint x="420" y="200" as="targetPoint" />
          </mxGeometry>
        </mxCell>
        <mxCell id="GKkTEuXcgtPDKcIp3vs8-9" value="" style="endArrow=classic;html=1;exitX=1;exitY=1;exitDx=0;exitDy=0;" parent="GKkTEuXcgtPDKcIp3vs8-1" source="GKkTEuXcgtPDKcIp3vs8-2" target="GKkTEuXcgtPDKcIp3vs8-4" edge="1">
          <mxGeometry width="50" height="50" relative="1" as="geometry">
            <mxPoint x="370" y="250" as="sourcePoint" />
            <mxPoint x="420" y="200" as="targetPoint" />
          </mxGeometry>
        </mxCell>
        <mxCell id="GKkTEuXcgtPDKcIp3vs8-10" value="" style="endArrow=classic;html=1;exitX=0;exitY=1;exitDx=0;exitDy=0;entryX=1;entryY=0;entryDx=0;entryDy=0;" parent="GKkTEuXcgtPDKcIp3vs8-1" edge="1">
          <mxGeometry width="50" height="50" relative="1" as="geometry">
            <mxPoint x="365.85786437626894" y="114.14213562373106" as="sourcePoint" />
            <mxPoint x="314.14213562373106" y="165.85786437626894" as="targetPoint" />
          </mxGeometry>
        </mxCell>
        <mxCell id="GKkTEuXcgtPDKcIp3vs8-11" value="" style="endArrow=classic;html=1;exitX=0;exitY=1;exitDx=0;exitDy=0;entryX=0.5;entryY=0;entryDx=0;entryDy=0;" parent="GKkTEuXcgtPDKcIp3vs8-1" source="GKkTEuXcgtPDKcIp3vs8-3" target="GKkTEuXcgtPDKcIp3vs8-5" edge="1">
          <mxGeometry width="50" height="50" relative="1" as="geometry">
            <mxPoint x="375.85786437626894" y="124.14213562373106" as="sourcePoint" />
            <mxPoint x="324.14213562373106" y="175.85786437626894" as="targetPoint" />
          </mxGeometry>
        </mxCell>
        <mxCell id="GKkTEuXcgtPDKcIp3vs8-12" value="" style="endArrow=classic;html=1;exitX=1;exitY=1;exitDx=0;exitDy=0;entryX=0.5;entryY=0;entryDx=0;entryDy=0;" parent="GKkTEuXcgtPDKcIp3vs8-1" source="GKkTEuXcgtPDKcIp3vs8-3" target="GKkTEuXcgtPDKcIp3vs8-6" edge="1">
          <mxGeometry width="50" height="50" relative="1" as="geometry">
            <mxPoint x="385.85786437626894" y="134.14213562373106" as="sourcePoint" />
            <mxPoint x="334.14213562373106" y="185.85786437626894" as="targetPoint" />
          </mxGeometry>
        </mxCell>
        <mxCell id="GKkTEuXcgtPDKcIp3vs8-13" value="" style="endArrow=classic;html=1;exitX=0;exitY=1;exitDx=0;exitDy=0;entryX=0.5;entryY=0;entryDx=0;entryDy=0;" parent="GKkTEuXcgtPDKcIp3vs8-1" source="GKkTEuXcgtPDKcIp3vs8-4" target="GKkTEuXcgtPDKcIp3vs8-7" edge="1">
          <mxGeometry width="50" height="50" relative="1" as="geometry">
            <mxPoint x="395.85786437626894" y="144.14213562373106" as="sourcePoint" />
            <mxPoint x="420" y="194" as="targetPoint" />
          </mxGeometry>
        </mxCell>
        <mxCell id="GKkTEuXcgtPDKcIp3vs8-15" value="G" style="ellipse;whiteSpace=wrap;html=1;aspect=fixed;" parent="GKkTEuXcgtPDKcIp3vs8-1" vertex="1">
          <mxGeometry x="480" y="240" width="40" height="40" as="geometry" />
        </mxCell>
        <mxCell id="GKkTEuXcgtPDKcIp3vs8-16" value="" style="endArrow=classic;html=1;entryX=0.5;entryY=0;entryDx=0;entryDy=0;exitX=1;exitY=1;exitDx=0;exitDy=0;" parent="GKkTEuXcgtPDKcIp3vs8-1" source="GKkTEuXcgtPDKcIp3vs8-4" target="GKkTEuXcgtPDKcIp3vs8-15" edge="1">
          <mxGeometry width="50" height="50" relative="1" as="geometry">
            <mxPoint x="540" y="170" as="sourcePoint" />
            <mxPoint x="560" y="180" as="targetPoint" />
          </mxGeometry>
        </mxCell>
      </root>
    </mxGraphModel>
  </diagram>
  <diagram name="delete1" id="PZRLNbCwiIjaNsoaZKze">
    <mxGraphModel dx="782" dy="431" grid="1" gridSize="10" guides="1" tooltips="1" connect="1" arrows="1" fold="1" page="1" pageScale="1" pageWidth="850" pageHeight="1100" math="0" shadow="0">
      <root>
        <mxCell id="Dqc5kk60L8dRfvvsSHrR-0" />
        <mxCell id="Dqc5kk60L8dRfvvsSHrR-1" parent="Dqc5kk60L8dRfvvsSHrR-0" />
        <mxCell id="Dqc5kk60L8dRfvvsSHrR-2" value="G" style="ellipse;whiteSpace=wrap;html=1;aspect=fixed;fillColor=#dae8fc;strokeColor=#6c8ebf;" parent="Dqc5kk60L8dRfvvsSHrR-1" vertex="1">
          <mxGeometry x="360" y="80" width="40" height="40" as="geometry" />
        </mxCell>
        <mxCell id="Dqc5kk60L8dRfvvsSHrR-3" value="D" style="ellipse;whiteSpace=wrap;html=1;aspect=fixed;" parent="Dqc5kk60L8dRfvvsSHrR-1" vertex="1">
          <mxGeometry x="280" y="160" width="40" height="40" as="geometry" />
        </mxCell>
        <mxCell id="Dqc5kk60L8dRfvvsSHrR-4" value="D" style="ellipse;whiteSpace=wrap;html=1;aspect=fixed;" parent="Dqc5kk60L8dRfvvsSHrR-1" vertex="1">
          <mxGeometry x="440" y="160" width="40" height="40" as="geometry" />
        </mxCell>
        <mxCell id="Dqc5kk60L8dRfvvsSHrR-5" value="E" style="ellipse;whiteSpace=wrap;html=1;aspect=fixed;" parent="Dqc5kk60L8dRfvvsSHrR-1" vertex="1">
          <mxGeometry x="240" y="240" width="40" height="40" as="geometry" />
        </mxCell>
        <mxCell id="Dqc5kk60L8dRfvvsSHrR-6" value="Z" style="ellipse;whiteSpace=wrap;html=1;aspect=fixed;" parent="Dqc5kk60L8dRfvvsSHrR-1" vertex="1">
          <mxGeometry x="320" y="240" width="40" height="40" as="geometry" />
        </mxCell>
        <mxCell id="Dqc5kk60L8dRfvvsSHrR-7" value="X" style="ellipse;whiteSpace=wrap;html=1;aspect=fixed;" parent="Dqc5kk60L8dRfvvsSHrR-1" vertex="1">
          <mxGeometry x="400" y="240" width="40" height="40" as="geometry" />
        </mxCell>
        <mxCell id="Dqc5kk60L8dRfvvsSHrR-8" value="" style="endArrow=classic;html=1;exitX=0;exitY=1;exitDx=0;exitDy=0;entryX=1;entryY=0;entryDx=0;entryDy=0;" parent="Dqc5kk60L8dRfvvsSHrR-1" source="Dqc5kk60L8dRfvvsSHrR-2" target="Dqc5kk60L8dRfvvsSHrR-3" edge="1">
          <mxGeometry width="50" height="50" relative="1" as="geometry">
            <mxPoint x="370" y="250" as="sourcePoint" />
            <mxPoint x="420" y="200" as="targetPoint" />
          </mxGeometry>
        </mxCell>
        <mxCell id="Dqc5kk60L8dRfvvsSHrR-9" value="" style="endArrow=classic;html=1;exitX=1;exitY=1;exitDx=0;exitDy=0;" parent="Dqc5kk60L8dRfvvsSHrR-1" source="Dqc5kk60L8dRfvvsSHrR-2" target="Dqc5kk60L8dRfvvsSHrR-4" edge="1">
          <mxGeometry width="50" height="50" relative="1" as="geometry">
            <mxPoint x="370" y="250" as="sourcePoint" />
            <mxPoint x="420" y="200" as="targetPoint" />
          </mxGeometry>
        </mxCell>
        <mxCell id="Dqc5kk60L8dRfvvsSHrR-10" value="" style="endArrow=classic;html=1;exitX=0;exitY=1;exitDx=0;exitDy=0;entryX=1;entryY=0;entryDx=0;entryDy=0;" parent="Dqc5kk60L8dRfvvsSHrR-1" edge="1">
          <mxGeometry width="50" height="50" relative="1" as="geometry">
            <mxPoint x="365.85786437626894" y="114.14213562373106" as="sourcePoint" />
            <mxPoint x="314.14213562373106" y="165.85786437626894" as="targetPoint" />
          </mxGeometry>
        </mxCell>
        <mxCell id="Dqc5kk60L8dRfvvsSHrR-11" value="" style="endArrow=classic;html=1;exitX=0;exitY=1;exitDx=0;exitDy=0;entryX=0.5;entryY=0;entryDx=0;entryDy=0;" parent="Dqc5kk60L8dRfvvsSHrR-1" source="Dqc5kk60L8dRfvvsSHrR-3" target="Dqc5kk60L8dRfvvsSHrR-5" edge="1">
          <mxGeometry width="50" height="50" relative="1" as="geometry">
            <mxPoint x="375.85786437626894" y="124.14213562373106" as="sourcePoint" />
            <mxPoint x="324.14213562373106" y="175.85786437626894" as="targetPoint" />
          </mxGeometry>
        </mxCell>
        <mxCell id="Dqc5kk60L8dRfvvsSHrR-12" value="" style="endArrow=classic;html=1;exitX=1;exitY=1;exitDx=0;exitDy=0;entryX=0.5;entryY=0;entryDx=0;entryDy=0;" parent="Dqc5kk60L8dRfvvsSHrR-1" source="Dqc5kk60L8dRfvvsSHrR-3" target="Dqc5kk60L8dRfvvsSHrR-6" edge="1">
          <mxGeometry width="50" height="50" relative="1" as="geometry">
            <mxPoint x="385.85786437626894" y="134.14213562373106" as="sourcePoint" />
            <mxPoint x="334.14213562373106" y="185.85786437626894" as="targetPoint" />
          </mxGeometry>
        </mxCell>
        <mxCell id="Dqc5kk60L8dRfvvsSHrR-13" value="" style="endArrow=classic;html=1;exitX=0;exitY=1;exitDx=0;exitDy=0;entryX=0.5;entryY=0;entryDx=0;entryDy=0;" parent="Dqc5kk60L8dRfvvsSHrR-1" source="Dqc5kk60L8dRfvvsSHrR-4" target="Dqc5kk60L8dRfvvsSHrR-7" edge="1">
          <mxGeometry width="50" height="50" relative="1" as="geometry">
            <mxPoint x="395.85786437626894" y="144.14213562373106" as="sourcePoint" />
            <mxPoint x="420" y="194" as="targetPoint" />
          </mxGeometry>
        </mxCell>
        <mxCell id="Dqc5kk60L8dRfvvsSHrR-14" value="" style="dashed=1;curved=1;endArrow=classic;startArrow=classic;html=1;exitX=0;exitY=0;exitDx=0;exitDy=0;entryX=0;entryY=0;entryDx=0;entryDy=0;fillColor=#f8cecc;strokeColor=#b85450;" parent="Dqc5kk60L8dRfvvsSHrR-1" source="Dqc5kk60L8dRfvvsSHrR-3" target="Dqc5kk60L8dRfvvsSHrR-2" edge="1">
          <mxGeometry width="50" height="50" relative="1" as="geometry">
            <mxPoint x="520" y="260" as="sourcePoint" />
            <mxPoint x="480" y="180" as="targetPoint" />
            <Array as="points">
              <mxPoint x="270" y="100" />
            </Array>
          </mxGeometry>
        </mxCell>
        <mxCell id="ZbfKyudAZBIzuAVvrGvH-0" value="A" style="ellipse;whiteSpace=wrap;html=1;aspect=fixed;fillColor=#f8cecc;strokeColor=#b85450;" parent="Dqc5kk60L8dRfvvsSHrR-1" vertex="1">
          <mxGeometry x="560" y="80" width="40" height="40" as="geometry" />
        </mxCell>
        <mxCell id="ZbfKyudAZBIzuAVvrGvH-1" value="Node deleted" style="text;html=1;strokeColor=none;fillColor=none;align=center;verticalAlign=middle;whiteSpace=wrap;rounded=0;" parent="Dqc5kk60L8dRfvvsSHrR-1" vertex="1">
          <mxGeometry x="600" y="90" width="100" height="20" as="geometry" />
        </mxCell>
      </root>
    </mxGraphModel>
  </diagram>
  <diagram name="delete2" id="X_KQX44xaxLORvPBFg76">
    <mxGraphModel dx="782" dy="431" grid="1" gridSize="10" guides="1" tooltips="1" connect="1" arrows="1" fold="1" page="1" pageScale="1" pageWidth="850" pageHeight="1100" math="0" shadow="0">
      <root>
        <mxCell id="_uw6f4uIdjb6el9madh7-0" />
        <mxCell id="_uw6f4uIdjb6el9madh7-1" parent="_uw6f4uIdjb6el9madh7-0" />
        <mxCell id="_uw6f4uIdjb6el9madh7-2" value="D" style="ellipse;whiteSpace=wrap;html=1;aspect=fixed;" parent="_uw6f4uIdjb6el9madh7-1" vertex="1">
          <mxGeometry x="360" y="80" width="40" height="40" as="geometry" />
        </mxCell>
        <mxCell id="_uw6f4uIdjb6el9madh7-3" value="G" style="ellipse;whiteSpace=wrap;html=1;aspect=fixed;fillColor=#dae8fc;strokeColor=#6c8ebf;" parent="_uw6f4uIdjb6el9madh7-1" vertex="1">
          <mxGeometry x="280" y="160" width="40" height="40" as="geometry" />
        </mxCell>
        <mxCell id="_uw6f4uIdjb6el9madh7-4" value="D" style="ellipse;whiteSpace=wrap;html=1;aspect=fixed;" parent="_uw6f4uIdjb6el9madh7-1" vertex="1">
          <mxGeometry x="440" y="160" width="40" height="40" as="geometry" />
        </mxCell>
        <mxCell id="_uw6f4uIdjb6el9madh7-5" value="E" style="ellipse;whiteSpace=wrap;html=1;aspect=fixed;" parent="_uw6f4uIdjb6el9madh7-1" vertex="1">
          <mxGeometry x="240" y="240" width="40" height="40" as="geometry" />
        </mxCell>
        <mxCell id="_uw6f4uIdjb6el9madh7-6" value="Z" style="ellipse;whiteSpace=wrap;html=1;aspect=fixed;" parent="_uw6f4uIdjb6el9madh7-1" vertex="1">
          <mxGeometry x="320" y="240" width="40" height="40" as="geometry" />
        </mxCell>
        <mxCell id="_uw6f4uIdjb6el9madh7-7" value="X" style="ellipse;whiteSpace=wrap;html=1;aspect=fixed;" parent="_uw6f4uIdjb6el9madh7-1" vertex="1">
          <mxGeometry x="400" y="240" width="40" height="40" as="geometry" />
        </mxCell>
        <mxCell id="_uw6f4uIdjb6el9madh7-8" value="" style="endArrow=classic;html=1;exitX=0;exitY=1;exitDx=0;exitDy=0;entryX=1;entryY=0;entryDx=0;entryDy=0;" parent="_uw6f4uIdjb6el9madh7-1" source="_uw6f4uIdjb6el9madh7-2" target="_uw6f4uIdjb6el9madh7-3" edge="1">
          <mxGeometry width="50" height="50" relative="1" as="geometry">
            <mxPoint x="370" y="250" as="sourcePoint" />
            <mxPoint x="420" y="200" as="targetPoint" />
          </mxGeometry>
        </mxCell>
        <mxCell id="_uw6f4uIdjb6el9madh7-9" value="" style="endArrow=classic;html=1;exitX=1;exitY=1;exitDx=0;exitDy=0;" parent="_uw6f4uIdjb6el9madh7-1" source="_uw6f4uIdjb6el9madh7-2" target="_uw6f4uIdjb6el9madh7-4" edge="1">
          <mxGeometry width="50" height="50" relative="1" as="geometry">
            <mxPoint x="370" y="250" as="sourcePoint" />
            <mxPoint x="420" y="200" as="targetPoint" />
          </mxGeometry>
        </mxCell>
        <mxCell id="_uw6f4uIdjb6el9madh7-10" value="" style="endArrow=classic;html=1;exitX=0;exitY=1;exitDx=0;exitDy=0;entryX=1;entryY=0;entryDx=0;entryDy=0;" parent="_uw6f4uIdjb6el9madh7-1" edge="1">
          <mxGeometry width="50" height="50" relative="1" as="geometry">
            <mxPoint x="365.85786437626894" y="114.14213562373106" as="sourcePoint" />
            <mxPoint x="314.14213562373106" y="165.85786437626894" as="targetPoint" />
          </mxGeometry>
        </mxCell>
        <mxCell id="_uw6f4uIdjb6el9madh7-11" value="" style="endArrow=classic;html=1;exitX=0;exitY=1;exitDx=0;exitDy=0;entryX=0.5;entryY=0;entryDx=0;entryDy=0;" parent="_uw6f4uIdjb6el9madh7-1" source="_uw6f4uIdjb6el9madh7-3" target="_uw6f4uIdjb6el9madh7-5" edge="1">
          <mxGeometry width="50" height="50" relative="1" as="geometry">
            <mxPoint x="375.85786437626894" y="124.14213562373106" as="sourcePoint" />
            <mxPoint x="324.14213562373106" y="175.85786437626894" as="targetPoint" />
          </mxGeometry>
        </mxCell>
        <mxCell id="_uw6f4uIdjb6el9madh7-12" value="" style="endArrow=classic;html=1;exitX=1;exitY=1;exitDx=0;exitDy=0;entryX=0.5;entryY=0;entryDx=0;entryDy=0;" parent="_uw6f4uIdjb6el9madh7-1" source="_uw6f4uIdjb6el9madh7-3" target="_uw6f4uIdjb6el9madh7-6" edge="1">
          <mxGeometry width="50" height="50" relative="1" as="geometry">
            <mxPoint x="385.85786437626894" y="134.14213562373106" as="sourcePoint" />
            <mxPoint x="334.14213562373106" y="185.85786437626894" as="targetPoint" />
          </mxGeometry>
        </mxCell>
        <mxCell id="_uw6f4uIdjb6el9madh7-13" value="" style="endArrow=classic;html=1;exitX=0;exitY=1;exitDx=0;exitDy=0;entryX=0.5;entryY=0;entryDx=0;entryDy=0;" parent="_uw6f4uIdjb6el9madh7-1" source="_uw6f4uIdjb6el9madh7-4" target="_uw6f4uIdjb6el9madh7-7" edge="1">
          <mxGeometry width="50" height="50" relative="1" as="geometry">
            <mxPoint x="395.85786437626894" y="144.14213562373106" as="sourcePoint" />
            <mxPoint x="420" y="194" as="targetPoint" />
          </mxGeometry>
        </mxCell>
        <mxCell id="_uw6f4uIdjb6el9madh7-14" value="" style="dashed=1;curved=1;endArrow=classic;startArrow=classic;html=1;exitX=0;exitY=0;exitDx=0;exitDy=0;entryX=0;entryY=0.5;entryDx=0;entryDy=0;fillColor=#f8cecc;strokeColor=#b85450;" parent="_uw6f4uIdjb6el9madh7-1" source="_uw6f4uIdjb6el9madh7-5" target="_uw6f4uIdjb6el9madh7-3" edge="1">
          <mxGeometry width="50" height="50" relative="1" as="geometry">
            <mxPoint x="520" y="260" as="sourcePoint" />
            <mxPoint x="480" y="180" as="targetPoint" />
            <Array as="points">
              <mxPoint x="240" y="180" />
            </Array>
          </mxGeometry>
        </mxCell>
        <mxCell id="bI7nuuUyA50QtXmmJDoG-0" value="A" style="ellipse;whiteSpace=wrap;html=1;aspect=fixed;fillColor=#f8cecc;strokeColor=#b85450;" vertex="1" parent="_uw6f4uIdjb6el9madh7-1">
          <mxGeometry x="560" y="80" width="40" height="40" as="geometry" />
        </mxCell>
        <mxCell id="ZN3HrRRkQWjDgwi0ZghG-0" value="Node deleted" style="text;html=1;strokeColor=none;fillColor=none;align=center;verticalAlign=middle;whiteSpace=wrap;rounded=0;" vertex="1" parent="_uw6f4uIdjb6el9madh7-1">
          <mxGeometry x="600" y="90" width="100" height="20" as="geometry" />
        </mxCell>
      </root>
    </mxGraphModel>
  </diagram>
  <diagram name="delete3" id="ajCL-RndQdDvNE3NTnRu">
    <mxGraphModel dx="782" dy="431" grid="1" gridSize="10" guides="1" tooltips="1" connect="1" arrows="1" fold="1" page="1" pageScale="1" pageWidth="850" pageHeight="1100" math="0" shadow="0">
      <root>
        <mxCell id="E6THZERxSCbt2HdxxE0Z-0" />
        <mxCell id="E6THZERxSCbt2HdxxE0Z-1" parent="E6THZERxSCbt2HdxxE0Z-0" />
        <mxCell id="E6THZERxSCbt2HdxxE0Z-2" value="D" style="ellipse;whiteSpace=wrap;html=1;aspect=fixed;" parent="E6THZERxSCbt2HdxxE0Z-1" vertex="1">
          <mxGeometry x="360" y="80" width="40" height="40" as="geometry" />
        </mxCell>
        <mxCell id="E6THZERxSCbt2HdxxE0Z-3" value="E" style="ellipse;whiteSpace=wrap;html=1;aspect=fixed;" parent="E6THZERxSCbt2HdxxE0Z-1" vertex="1">
          <mxGeometry x="280" y="160" width="40" height="40" as="geometry" />
        </mxCell>
        <mxCell id="E6THZERxSCbt2HdxxE0Z-4" value="D" style="ellipse;whiteSpace=wrap;html=1;aspect=fixed;" parent="E6THZERxSCbt2HdxxE0Z-1" vertex="1">
          <mxGeometry x="440" y="160" width="40" height="40" as="geometry" />
        </mxCell>
        <mxCell id="E6THZERxSCbt2HdxxE0Z-5" value="G" style="ellipse;whiteSpace=wrap;html=1;aspect=fixed;fillColor=#dae8fc;strokeColor=#6c8ebf;" parent="E6THZERxSCbt2HdxxE0Z-1" vertex="1">
          <mxGeometry x="240" y="240" width="40" height="40" as="geometry" />
        </mxCell>
        <mxCell id="E6THZERxSCbt2HdxxE0Z-6" value="Z" style="ellipse;whiteSpace=wrap;html=1;aspect=fixed;" parent="E6THZERxSCbt2HdxxE0Z-1" vertex="1">
          <mxGeometry x="320" y="240" width="40" height="40" as="geometry" />
        </mxCell>
        <mxCell id="E6THZERxSCbt2HdxxE0Z-7" value="X" style="ellipse;whiteSpace=wrap;html=1;aspect=fixed;" parent="E6THZERxSCbt2HdxxE0Z-1" vertex="1">
          <mxGeometry x="400" y="240" width="40" height="40" as="geometry" />
        </mxCell>
        <mxCell id="E6THZERxSCbt2HdxxE0Z-8" value="" style="endArrow=classic;html=1;exitX=0;exitY=1;exitDx=0;exitDy=0;entryX=1;entryY=0;entryDx=0;entryDy=0;" parent="E6THZERxSCbt2HdxxE0Z-1" source="E6THZERxSCbt2HdxxE0Z-2" target="E6THZERxSCbt2HdxxE0Z-3" edge="1">
          <mxGeometry width="50" height="50" relative="1" as="geometry">
            <mxPoint x="370" y="250" as="sourcePoint" />
            <mxPoint x="420" y="200" as="targetPoint" />
          </mxGeometry>
        </mxCell>
        <mxCell id="E6THZERxSCbt2HdxxE0Z-9" value="" style="endArrow=classic;html=1;exitX=1;exitY=1;exitDx=0;exitDy=0;" parent="E6THZERxSCbt2HdxxE0Z-1" source="E6THZERxSCbt2HdxxE0Z-2" target="E6THZERxSCbt2HdxxE0Z-4" edge="1">
          <mxGeometry width="50" height="50" relative="1" as="geometry">
            <mxPoint x="370" y="250" as="sourcePoint" />
            <mxPoint x="420" y="200" as="targetPoint" />
          </mxGeometry>
        </mxCell>
        <mxCell id="E6THZERxSCbt2HdxxE0Z-10" value="" style="endArrow=classic;html=1;exitX=0;exitY=1;exitDx=0;exitDy=0;entryX=1;entryY=0;entryDx=0;entryDy=0;" parent="E6THZERxSCbt2HdxxE0Z-1" edge="1">
          <mxGeometry width="50" height="50" relative="1" as="geometry">
            <mxPoint x="365.85786437626894" y="114.14213562373106" as="sourcePoint" />
            <mxPoint x="314.14213562373106" y="165.85786437626894" as="targetPoint" />
          </mxGeometry>
        </mxCell>
        <mxCell id="E6THZERxSCbt2HdxxE0Z-11" value="" style="endArrow=classic;html=1;exitX=0;exitY=1;exitDx=0;exitDy=0;entryX=0.5;entryY=0;entryDx=0;entryDy=0;" parent="E6THZERxSCbt2HdxxE0Z-1" source="E6THZERxSCbt2HdxxE0Z-3" target="E6THZERxSCbt2HdxxE0Z-5" edge="1">
          <mxGeometry width="50" height="50" relative="1" as="geometry">
            <mxPoint x="375.85786437626894" y="124.14213562373106" as="sourcePoint" />
            <mxPoint x="324.14213562373106" y="175.85786437626894" as="targetPoint" />
          </mxGeometry>
        </mxCell>
        <mxCell id="E6THZERxSCbt2HdxxE0Z-12" value="" style="endArrow=classic;html=1;exitX=1;exitY=1;exitDx=0;exitDy=0;entryX=0.5;entryY=0;entryDx=0;entryDy=0;" parent="E6THZERxSCbt2HdxxE0Z-1" source="E6THZERxSCbt2HdxxE0Z-3" target="E6THZERxSCbt2HdxxE0Z-6" edge="1">
          <mxGeometry width="50" height="50" relative="1" as="geometry">
            <mxPoint x="385.85786437626894" y="134.14213562373106" as="sourcePoint" />
            <mxPoint x="334.14213562373106" y="185.85786437626894" as="targetPoint" />
          </mxGeometry>
        </mxCell>
        <mxCell id="E6THZERxSCbt2HdxxE0Z-13" value="" style="endArrow=classic;html=1;exitX=0;exitY=1;exitDx=0;exitDy=0;entryX=0.5;entryY=0;entryDx=0;entryDy=0;" parent="E6THZERxSCbt2HdxxE0Z-1" source="E6THZERxSCbt2HdxxE0Z-4" target="E6THZERxSCbt2HdxxE0Z-7" edge="1">
          <mxGeometry width="50" height="50" relative="1" as="geometry">
            <mxPoint x="395.85786437626894" y="144.14213562373106" as="sourcePoint" />
            <mxPoint x="420" y="194" as="targetPoint" />
          </mxGeometry>
        </mxCell>
        <mxCell id="Zn9r-JBDJDK6J4D7amEl-0" value="Node deleted" style="text;html=1;strokeColor=none;fillColor=none;align=center;verticalAlign=middle;whiteSpace=wrap;rounded=0;" vertex="1" parent="E6THZERxSCbt2HdxxE0Z-1">
          <mxGeometry x="600" y="90" width="100" height="20" as="geometry" />
        </mxCell>
        <mxCell id="r_Z7kQ1wr0iT1s3MKxFU-0" value="A" style="ellipse;whiteSpace=wrap;html=1;aspect=fixed;fillColor=#f8cecc;strokeColor=#b85450;" vertex="1" parent="E6THZERxSCbt2HdxxE0Z-1">
          <mxGeometry x="560" y="80" width="40" height="40" as="geometry" />
        </mxCell>
      </root>
    </mxGraphModel>
  </diagram>
</mxfile>
